# xmcd CD database file generated by MAGIX-FreeDB-MP3_Maker_14 v2.0beta1
# 
# Track frame offsets:
#      183
#      16358
#      32405
#      44435
#      57400
#      71973
#      88205
#      100375
#      117660
#      135225
#      147818
#      164558
#      178608
#      193460
#      205933
#      226440
#      246388
# 
# Disc length: 3512 seconds
# 
# Revision: 4 
# Processed by: cddbd v1.5.2PL0 Copyright (c) Steve Scherf et al.
# Submitted via: MAGIX-FreeDB-MP3_Maker_14 v2.0beta1
# 
DISCID=050db611
DTITLE=Joy Fleming - Joy Fleming und ihre grossen Erfolge
DYEAR=1992
DGENRE=Blues
TTITLE0=Joy Fleming - Ein Lied kann eine Bruecke sein
TTITLE1=Joy Fleming - Mannemer Dreck
TTITLE2=Joy Fleming - Halbblut
TTITLE3=Joy Fleming - Kall, oh Kall
TTITLE4=Joy Fleming - Fieber
TTITLE5=Joy Fleming - Menschenskind
TTITLE6=Joy Fleming - Meiner ist so einer
TTITLE7=Joy Fleming - Neckarbrueckenblues
TTITLE8=Joy Fleming - Ich sing fuer's Finanzamt
TTITLE9=Joy Fleming - Rocktown
TTITLE10=Joy Fleming - Er ist ein Ehemann
TTITLE11=Joy Fleming - Ich will mein Meisl
TTITLE12=Joy Fleming - Geld
TTITLE13=Joy Fleming - Bad Bad Leroy Brown
TTITLE14=Joy Fleming - Alabama Stand By
TTITLE15=Joy Fleming - Superstition
TTITLE16=Joy Fleming - Bridge Over Troubled Water
EXTD=
EXTT0=
EXTT1=
EXTT2=
EXTT3=
EXTT4=
EXTT5=
EXTT6=
EXTT7=
EXTT8=
EXTT9=
EXTT10=
EXTT11=
EXTT12=
EXTT13=
EXTT14=
EXTT15=
EXTT16=
PLAYORDER=
